<svg xmlns="http://www.w3.org/2000/svg" xmlns:xlink="http://www.w3.org/1999/xlink" width="317.483" height="52.99" viewBox="0 0 317.483 52.99">
  <defs>
    <clipPath id="clip-path">
      <rect id="Rectangle_15" data-name="Rectangle 15" width="317.483" height="52.99" fill="none"/>
    </clipPath>
    <clipPath id="clip-path-3">
      <rect id="Rectangle_8" data-name="Rectangle 8" width="155.583" height="52.486" fill="none"/>
    </clipPath>
  </defs>
  <g id="Group_10" data-name="Group 10" clip-path="url(#clip-path)">
    <g id="Group_9" data-name="Group 9" transform="translate(0 0)">
      <g id="Group_8" data-name="Group 8" clip-path="url(#clip-path)">
        <path id="Path_1" data-name="Path 1" d="M268.628,1.377H374.875c13.4,0,24.227,11.555,24.227,25.774,0,14.255-10.862,25.774-24.227,25.774H268.628c-13.4,0-24.227-11.555-24.227-25.774S255.262,1.377,268.628,1.377" transform="translate(-82.061 -0.404)" fill="#fff"/>
        <g id="Group_4" data-name="Group 4" transform="translate(161.899 0.504)" opacity="0.25">
          <g id="Group_3" data-name="Group 3">
            <g id="Group_2" data-name="Group 2" clip-path="url(#clip-path-3)">
              <path id="Path_2" data-name="Path 2" d="M268.867,2.09H375.114c13.129,0,23.753,11.3,23.753,25.27s-10.625,25.27-23.753,25.27H268.867c-13.129,0-23.753-11.3-23.753-25.27S255.738,2.09,268.867,2.09Z" transform="translate(-244.199 -1.117)" fill="none" stroke="#010202" stroke-width="2.754"/>
            </g>
          </g>
        </g>
        <path id="Path_3" data-name="Path 3" d="M329.115,20.836V26.7h1.658a2.821,2.821,0,0,0,2.1-.828,2.864,2.864,0,0,0,.778-2.123,3.006,3.006,0,0,0-.778-2.124,2.746,2.746,0,0,0-2.1-.792Zm1.658.864a1.828,1.828,0,0,1,1.455.576,2,2,0,0,1,.541,1.512,2.1,2.1,0,0,1-.541,1.512,1.876,1.876,0,0,1-1.455.576h-.812V21.7h.812" transform="translate(-110.504 -6.112)" fill="#010202"/>
        <path id="Path_4" data-name="Path 4" d="M339.109,22.823a1.982,1.982,0,0,0-1.489.648,2.459,2.459,0,0,0,0,3.24,2.1,2.1,0,0,0,1.489.684,1.982,1.982,0,0,0,1.489-.648,2.459,2.459,0,0,0,0-3.24,1.946,1.946,0,0,0-1.489-.684m0,.864a1.112,1.112,0,0,1,.879.432,1.442,1.442,0,0,1,.339,1.008,1.621,1.621,0,0,1-.339,1.008,1.175,1.175,0,0,1-1.759,0,1.5,1.5,0,0,1-.339-1.008,1.442,1.442,0,0,1,.339-1.008,1.112,1.112,0,0,1,.879-.432" transform="translate(-113.155 -6.695)" fill="#010202"/>
        <path id="Path_5" data-name="Path 5" d="M348.455,25.739l-1.218-2.916h-.3l-1.184,2.952L344.7,22.931h-.914l1.76,4.463h.3l1.251-2.916,1.252,2.916h.3l1.726-4.463h-.914Z" transform="translate(-115.43 -6.695)" fill="#010202"/>
        <path id="Path_6" data-name="Path 6" d="M356.8,22.823a1.5,1.5,0,0,0-1.184.54v-.432h-.779v4.356h.846V24.695a.91.91,0,0,1,.913-1.008c.507,0,.846.4.846,1.008v2.592h.846V24.551c0-1.044-.575-1.728-1.489-1.728" transform="translate(-119.141 -6.695)" fill="#010202"/>
        <rect id="Rectangle_9" data-name="Rectangle 9" width="0.846" height="6.659" transform="translate(240.3 13.932)" fill="#010202"/>
        <path id="Path_7" data-name="Path 7" d="M366.566,22.823a1.982,1.982,0,0,0-1.489.648,2.459,2.459,0,0,0,0,3.24,2.1,2.1,0,0,0,1.489.684,1.982,1.982,0,0,0,1.489-.648,2.459,2.459,0,0,0,0-3.24,1.9,1.9,0,0,0-1.489-.684m.034.864a1.112,1.112,0,0,1,.879.432,1.442,1.442,0,0,1,.339,1.008,1.621,1.621,0,0,1-.339,1.008,1.175,1.175,0,0,1-1.759,0,1.5,1.5,0,0,1-.339-1.008,1.442,1.442,0,0,1,.339-1.008,1.023,1.023,0,0,1,.879-.432" transform="translate(-122.374 -6.695)" fill="#010202"/>
        <path id="Path_8" data-name="Path 8" d="M373.63,22.823a1.9,1.9,0,0,0-1.659.936l.474.54a1.424,1.424,0,0,1,1.083-.648c.541,0,.846.324.846.936v.288h-1.117a1.288,1.288,0,0,0-1.455,1.26,1.247,1.247,0,0,0,1.387,1.26,1.466,1.466,0,0,0,1.252-.576v.5h.778V24.695c0-1.224-.643-1.872-1.59-1.872m-.271,3.852c-.406,0-.677-.216-.677-.576s.237-.54.711-.54h1.015v.072a1.047,1.047,0,0,1-1.049,1.044" transform="translate(-124.837 -6.695)" fill="#010202"/>
        <path id="Path_9" data-name="Path 9" d="M381.572,22.545a1.517,1.517,0,0,0-1.32-.648,1.775,1.775,0,0,0-1.388.648,2.695,2.695,0,0,0,0,3.24,1.728,1.728,0,0,0,1.388.648,1.569,1.569,0,0,0,1.387-.72v.612h.778V19.665h-.845Zm-1.15,3.06a1.193,1.193,0,0,1-.879-.4,1.473,1.473,0,0,1-.339-1.044,1.381,1.381,0,0,1,.339-1.008,1.174,1.174,0,0,1,1.725-.036,1.478,1.478,0,0,1,.338,1.044c0,.972-.541,1.44-1.184,1.44" transform="translate(-127.026 -5.769)" fill="#010202"/>
        <path id="Path_10" data-name="Path 10" d="M391.425,22.823a1.982,1.982,0,0,0-1.489.648,2.459,2.459,0,0,0,0,3.24,2.1,2.1,0,0,0,1.489.684,1.982,1.982,0,0,0,1.489-.648,2.459,2.459,0,0,0,0-3.24,1.946,1.946,0,0,0-1.489-.684m0,.864a1.112,1.112,0,0,1,.879.432,1.442,1.442,0,0,1,.339,1.008,1.621,1.621,0,0,1-.339,1.008,1.175,1.175,0,0,1-1.759,0,1.5,1.5,0,0,1-.339-1.008,1.442,1.442,0,0,1,.339-1.008,1.112,1.112,0,0,1,.879-.432" transform="translate(-130.721 -6.695)" fill="#010202"/>
        <path id="Path_11" data-name="Path 11" d="M399.032,22.823a1.5,1.5,0,0,0-1.184.54v-.432h-.779v4.356h.846V24.695a.91.91,0,0,1,.913-1.008c.507,0,.846.4.846,1.008v2.592h.846V24.551c0-1.044-.541-1.728-1.489-1.728" transform="translate(-133.321 -6.695)" fill="#010202"/>
        <path id="Path_12" data-name="Path 12" d="M409.015,26.1c-.508,0-.779-.18-.779-.756V23.29h1.184V22.5h-1.184V21.346h-.846V22.5h-.643v.792h.643v2.123a1.335,1.335,0,0,0,1.455,1.512,2.81,2.81,0,0,0,.711-.108v-.792a1.913,1.913,0,0,1-.541.072" transform="translate(-136.57 -6.262)" fill="#010202"/>
        <path id="Path_13" data-name="Path 13" d="M414.2,21.912a1.43,1.43,0,0,0-1.15.54V19.716H412.2v6.659h.846V23.783a.91.91,0,0,1,.913-1.008c.508,0,.846.4.846,1.008v2.592h.846V23.639c0-1.008-.541-1.728-1.455-1.728" transform="translate(-138.401 -5.784)" fill="#010202"/>
        <path id="Path_14" data-name="Path 14" d="M422.7,24.839a2.123,2.123,0,0,0-.507-1.44,1.619,1.619,0,0,0-1.286-.576,1.833,1.833,0,0,0-1.455.684,2.25,2.25,0,0,0-.575,1.62,2.274,2.274,0,0,0,.609,1.62A2.005,2.005,0,0,0,421,27.4a1.953,1.953,0,0,0,1.556-.72l-.406-.648a1.539,1.539,0,0,1-1.15.5,1.252,1.252,0,0,1-1.286-1.152h2.944c0-.18.034-.36.034-.54m-1.861-1.224a1.009,1.009,0,0,1,1.015,1.08h-2.132a1.159,1.159,0,0,1,1.117-1.08" transform="translate(-140.641 -6.695)" fill="#010202"/>
        <path id="Path_15" data-name="Path 15" d="M337.808,46.651l-4.4-11.195h-.541L328.5,46.651h1.692l.711-1.836h4.466l.711,1.836ZM331.481,43.3l1.658-4.571,1.624,4.571Z" transform="translate(-110.299 -10.401)" fill="#010202"/>
        <path id="Path_16" data-name="Path 16" d="M348.3,39.429a2.972,2.972,0,0,0-2.572,1.368V39.645h-1.489v11.2h1.59v-4A2.867,2.867,0,0,0,348.3,48a3.212,3.212,0,0,0,2.605-1.224,5.12,5.12,0,0,0,0-6.12,3.214,3.214,0,0,0-2.605-1.224m-.271,6.948a2.1,2.1,0,0,1-1.59-.684,2.791,2.791,0,0,1-.643-2.016c0-1.764,1.015-2.663,2.233-2.663a2.071,2.071,0,0,1,1.624.756,2.839,2.839,0,0,1,.643,1.943,2.745,2.745,0,0,1-.643,1.908,2.073,2.073,0,0,1-1.624.756" transform="translate(-115.584 -11.566)" fill="#010202"/>
        <path id="Path_17" data-name="Path 17" d="M362.109,39.429a2.972,2.972,0,0,0-2.572,1.368V39.645h-1.489v11.2h1.59v-4A2.867,2.867,0,0,0,362.109,48a3.212,3.212,0,0,0,2.605-1.224,5.12,5.12,0,0,0,0-6.12,3.214,3.214,0,0,0-2.605-1.224m-.237,6.948a2.1,2.1,0,0,1-1.59-.684,2.791,2.791,0,0,1-.643-2.016c0-1.764,1.015-2.663,2.233-2.663a2.071,2.071,0,0,1,1.624.756,2.839,2.839,0,0,1,.643,1.943,2.745,2.745,0,0,1-.643,1.908,2.123,2.123,0,0,1-1.624.756" transform="translate(-120.219 -11.566)" fill="#010202"/>
        <path id="Path_18" data-name="Path 18" d="M380.6,35.456a3.262,3.262,0,0,0-2.233.828,2.743,2.743,0,0,0-.913,2.16c0,1.4.846,2.3,2.3,3.06l1.083.576c1.049.54,1.455.864,1.455,1.656a1.542,1.542,0,0,1-1.726,1.548,3.091,3.091,0,0,1-2.605-1.764l-1.117.936a4.191,4.191,0,0,0,3.756,2.376,3.345,3.345,0,0,0,2.369-.864,2.963,2.963,0,0,0,.947-2.3c0-1.439-.778-2.3-2.369-3.131l-1.117-.576c-1.015-.541-1.387-.828-1.387-1.584a1.345,1.345,0,0,1,1.489-1.332,2.466,2.466,0,0,1,2.1,1.332l1.117-.936a3.473,3.473,0,0,0-3.146-1.98" transform="translate(-126.531 -10.401)" fill="#010202"/>
        <path id="Path_19" data-name="Path 19" d="M392.877,45.591c-.947,0-1.455-.36-1.455-1.4V40.3h2.2V38.788h-2.2v-2.16h-1.591v2.16h-1.218V40.3h1.218v4c0,1.908,1.016,2.844,2.707,2.844a6.619,6.619,0,0,0,1.319-.179V45.483a6.409,6.409,0,0,1-.981.108" transform="translate(-130.481 -10.745)" fill="#010202"/>
        <path id="Path_20" data-name="Path 20" d="M401.419,39.43a3.721,3.721,0,0,0-2.775,1.224,4.359,4.359,0,0,0-1.117,3.024,4.3,4.3,0,0,0,1.117,3.024,3.7,3.7,0,0,0,2.775,1.26,3.777,3.777,0,0,0,2.775-1.224,4.265,4.265,0,0,0,1.15-3.06,4.323,4.323,0,0,0-1.15-3.024,3.721,3.721,0,0,0-2.775-1.224m.034,1.62a2,2,0,0,1,1.624.792,2.765,2.765,0,0,1,.677,1.908,2.9,2.9,0,0,1-.677,1.907,2.071,2.071,0,0,1-1.624.756,1.978,1.978,0,0,1-1.624-.756,3.151,3.151,0,0,1,0-3.815,1.915,1.915,0,0,1,1.624-.792" transform="translate(-133.475 -11.567)" fill="#010202"/>
        <path id="Path_21" data-name="Path 21" d="M415.191,39.583a2.539,2.539,0,0,0-2.165,1.152v-1.08h-1.489v8.171h1.591V43.471a2.079,2.079,0,0,1,2.165-2.268h.474V39.655a2.288,2.288,0,0,0-.575-.072" transform="translate(-138.178 -11.612)" fill="#010202"/>
        <path id="Path_22" data-name="Path 22" d="M425.977,43.158a3.915,3.915,0,0,0-.981-2.7,3.126,3.126,0,0,0-2.436-1.08,3.445,3.445,0,0,0-2.707,1.26,4.334,4.334,0,0,0-1.083,3.024,4.387,4.387,0,0,0,1.117,3.06,3.639,3.639,0,0,0,2.842,1.224,3.907,3.907,0,0,0,2.943-1.331l-.743-1.189a3.082,3.082,0,0,1-2.166.972,2.323,2.323,0,0,1-2.4-2.16h5.515c.034-.36.1-.719.1-1.08m-3.485-2.268a1.872,1.872,0,0,1,1.9,2.016H420.36a2.248,2.248,0,0,1,2.132-2.016" transform="translate(-140.607 -11.551)" fill="#010202"/>
        <path id="Path_23" data-name="Path 23" d="M308.95,31.393a5.634,5.634,0,0,1,2.673-4.715,5.842,5.842,0,0,0-4.534-2.448c-1.9-.216-3.756,1.152-4.737,1.152s-2.5-1.116-4.094-1.08a6.014,6.014,0,0,0-5.075,3.1c-2.2,3.78-.575,9.36,1.557,12.419,1.049,1.512,2.267,3.168,3.891,3.132,1.59-.072,2.165-1.008,4.06-1.008s2.436,1.008,4.094.972c1.692-.036,2.775-1.512,3.79-3.024A13.2,13.2,0,0,0,312.3,36.4a5.453,5.453,0,0,1-3.35-5m-3.113-9.143a5.443,5.443,0,0,0,1.252-3.959,5.536,5.536,0,0,0-3.655,1.871,5.159,5.159,0,0,0-1.286,3.816,4.741,4.741,0,0,0,3.689-1.728" transform="translate(-98.087 -5.365)" fill="#010202"/>
        <path id="Path_24" data-name="Path 24" d="M24.891.715H131.138c13.4,0,24.227,11.555,24.227,25.774,0,14.255-10.862,25.774-24.227,25.774H24.891C11.492,52.263.664,40.708.664,26.489.664,12.234,11.525.715,24.891.715" transform="translate(-0.223 -0.21)" fill="#fff"/>
        <g id="Group_7" data-name="Group 7" transform="translate(0 0)" opacity="0.25">
          <g id="Group_6" data-name="Group 6">
            <g id="Group_5" data-name="Group 5" clip-path="url(#clip-path-3)">
              <path id="Path_25" data-name="Path 25" d="M25.13,1.377H131.377c13.129,0,23.753,11.3,23.753,25.27s-10.624,25.27-23.753,25.27H25.13c-13.129,0-23.753-11.3-23.753-25.27C1.377,12.716,12,1.377,25.13,1.377Z" transform="translate(-0.462 -0.404)" fill="none" stroke="#010202" stroke-width="2.754"/>
            </g>
          </g>
        </g>
        <path id="Path_26" data-name="Path 26" d="M54.482,31.657,42.944,20.174a2.717,2.717,0,0,0-.2.972v21.13a2.717,2.717,0,0,0,.2.972Z" transform="translate(-14.351 -5.918)" fill="#010202"/>
        <path id="Path_27" data-name="Path 27" d="M62.455,34.84l3.857,3.816,4.23-2.376c1.353-.756,1.353-2.016,0-2.772l-4.331-2.484Z" transform="translate(-20.97 -9.101)" fill="#010202"/>
        <path id="Path_28" data-name="Path 28" d="M55.6,30.657l3.553-3.636L45.588,19.39a1.709,1.709,0,0,0-1.523-.18Z" transform="translate(-14.795 -5.602)" fill="#010202"/>
        <path id="Path_29" data-name="Path 29" d="M55.6,37.341,44.065,48.9a2.09,2.09,0,0,0,1.624-.18l13.636-7.631Z" transform="translate(-14.795 -10.954)" fill="#010202"/>
        <path id="Path_30" data-name="Path 30" d="M87.626,21.3a2.649,2.649,0,0,0-2,.864,3.277,3.277,0,0,0,0,4.319,2.649,2.649,0,0,0,2,.864,2.747,2.747,0,0,0,2.47-1.548V24.139h-2.5v.828h1.624v.648a1.722,1.722,0,0,1-1.59.9,1.878,1.878,0,0,1-1.421-.612,2.286,2.286,0,0,1-.542-1.584,2.195,2.195,0,0,1,.542-1.548,1.756,1.756,0,0,1,1.387-.612,1.83,1.83,0,0,1,1.59.936l.609-.576A2.408,2.408,0,0,0,87.626,21.3" transform="translate(-28.479 -6.247)" fill="#010202"/>
        <path id="Path_31" data-name="Path 31" d="M94.395,21.448v5.867h3.587v-.827H95.241V24.616h2v-.828h-2V22.276H97.88v-.828Z" transform="translate(-31.694 -6.292)" fill="#010202"/>
        <path id="Path_32" data-name="Path 32" d="M100.456,21.448v.828h1.793v5.039h.846V22.276h1.793v-.828Z" transform="translate(-33.729 -6.292)" fill="#010202"/>
        <rect id="Rectangle_11" data-name="Rectangle 11" width="0.846" height="5.867" transform="translate(73.833 15.156)" fill="#010202"/>
        <path id="Path_33" data-name="Path 33" d="M113.65,21.448v.828h1.793v5.039h.846V22.276h1.793v-.828Z" transform="translate(-38.159 -6.292)" fill="#010202"/>
        <path id="Path_34" data-name="Path 34" d="M126.6,21.294a2.649,2.649,0,0,0-2,.864,3.278,3.278,0,0,0,0,4.32,2.7,2.7,0,0,0,3.959,0,3.28,3.28,0,0,0,0-4.32,2.53,2.53,0,0,0-1.963-.864m0,.864a1.74,1.74,0,0,1,1.354.612,2.2,2.2,0,0,1,.541,1.548,2.14,2.14,0,0,1-.541,1.548,1.791,1.791,0,0,1-1.354.612,1.74,1.74,0,0,1-1.354-.612,2.26,2.26,0,0,1-.541-1.548,2.2,2.2,0,0,1,.541-1.548,1.791,1.791,0,0,1,1.354-.612" transform="translate(-41.563 -6.246)" fill="#010202"/>
        <path id="Path_35" data-name="Path 35" d="M137.29,25.363,134.076,21.3h-.3v5.975h.846V23.31l3.248,4.068h.3V21.4h-.846v3.959Z" transform="translate(-44.915 -6.247)" fill="#010202"/>
        <path id="Path_36" data-name="Path 36" d="M89.724,35.915a4.492,4.492,0,0,0-3.485,1.548,5.738,5.738,0,0,0,0,7.56,4.581,4.581,0,0,0,3.485,1.512,4.86,4.86,0,0,0,4.331-2.7v-2.88H89.69V42.43h2.876v1.116a3.046,3.046,0,0,1-2.775,1.548,3.149,3.149,0,0,1-2.47-1.08,4.488,4.488,0,0,1-.034-5.472,3.01,3.01,0,0,1,2.4-1.08,3.155,3.155,0,0,1,2.775,1.62l1.083-.972a4.2,4.2,0,0,0-3.823-2.2" transform="translate(-28.479 -10.536)" fill="#010202"/>
        <path id="Path_37" data-name="Path 37" d="M103.3,39.634a3.472,3.472,0,0,0-2.605,1.152,4.377,4.377,0,0,0,0,5.687,3.42,3.42,0,0,0,2.605,1.152,3.525,3.525,0,0,0,2.605-1.152,4.1,4.1,0,0,0,1.083-2.844,4.042,4.042,0,0,0-1.083-2.844,3.472,3.472,0,0,0-2.605-1.152m.034,1.512a1.95,1.95,0,0,1,1.522.72,2.571,2.571,0,0,1,.609,1.764,2.635,2.635,0,0,1-.609,1.764,2.036,2.036,0,0,1-3.045,0,2.635,2.635,0,0,1-.609-1.764,2.571,2.571,0,0,1,.609-1.764,1.762,1.762,0,0,1,1.522-.72" transform="translate(-33.456 -11.626)" fill="#010202"/>
        <path id="Path_38" data-name="Path 38" d="M115.165,39.634a3.472,3.472,0,0,0-2.605,1.152,4.377,4.377,0,0,0,0,5.687,3.42,3.42,0,0,0,2.605,1.152,3.525,3.525,0,0,0,2.605-1.152,4.1,4.1,0,0,0,1.083-2.844,4.042,4.042,0,0,0-1.083-2.844,3.472,3.472,0,0,0-2.605-1.152m.034,1.512a1.95,1.95,0,0,1,1.522.72,2.571,2.571,0,0,1,.609,1.764,2.635,2.635,0,0,1-.609,1.764,2.036,2.036,0,0,1-3.045,0,2.635,2.635,0,0,1-.609-1.764,2.571,2.571,0,0,1,.609-1.764,1.762,1.762,0,0,1,1.522-.72" transform="translate(-37.441 -11.626)" fill="#010202"/>
        <path id="Path_39" data-name="Path 39" d="M129.318,40.893a2.731,2.731,0,0,0-2.436-1.26,3.055,3.055,0,0,0-2.4,1.08,3.953,3.953,0,0,0-.948,2.771,4.183,4.183,0,0,0,.948,2.771,3.055,3.055,0,0,0,2.4,1.08,2.787,2.787,0,0,0,2.335-1.08v.54a1.948,1.948,0,0,1-2.064,2.2,3.7,3.7,0,0,1-2.436-1.08l-.812,1.152a4.384,4.384,0,0,0,3.316,1.439c2.1,0,3.451-1.367,3.451-3.779v-6.84h-1.354Zm-2.2,4.968a2.055,2.055,0,0,1-1.522-.648,2.755,2.755,0,0,1,0-3.456,2,2,0,0,1,1.522-.648,2.086,2.086,0,0,1,2.1,2.34,2.483,2.483,0,0,1-.609,1.8,2.146,2.146,0,0,1-1.489.612" transform="translate(-41.477 -11.626)" fill="#010202"/>
        <rect id="Rectangle_12" data-name="Rectangle 12" width="1.489" height="11.663" transform="translate(90.615 24.155)" fill="#010202"/>
        <path id="Path_40" data-name="Path 40" d="M146.974,43.11a3.631,3.631,0,0,0-.913-2.52,2.881,2.881,0,0,0-2.267-1.008,3.284,3.284,0,0,0-2.538,1.152,4.148,4.148,0,0,0-1.015,2.844,3.957,3.957,0,0,0,1.049,2.844,3.513,3.513,0,0,0,2.674,1.152,3.75,3.75,0,0,0,2.775-1.224l-.711-1.116a2.787,2.787,0,0,1-2.03.9,2.224,2.224,0,0,1-2.268-2.016h5.143a5.091,5.091,0,0,0,.1-1.008m-3.248-2.088a1.724,1.724,0,0,1,1.76,1.872H141.73a2.1,2.1,0,0,1,2-1.872" transform="translate(-47.088 -11.611)" fill="#010202"/>
        <path id="Path_41" data-name="Path 41" d="M156.9,36.169V46.428h1.489V42.469h1.9a3,3,0,0,0,3.18-3.168,3.08,3.08,0,0,0-.879-2.268,3.126,3.126,0,0,0-2.3-.864Zm3.384,1.44a1.692,1.692,0,0,1,0,3.383h-1.861V37.609Z" transform="translate(-52.681 -10.61)" fill="#010202"/>
        <rect id="Rectangle_13" data-name="Rectangle 13" width="1.489" height="11.663" transform="translate(111.628 24.155)" fill="#010202"/>
        <path id="Path_42" data-name="Path 42" d="M174.868,39.633a3.252,3.252,0,0,0-2.91,1.62l.846.972a2.459,2.459,0,0,1,1.928-1.152c.948,0,1.489.576,1.489,1.62v.5h-1.963c-1.556,0-2.537.864-2.537,2.2a2.164,2.164,0,0,0,2.4,2.2,2.6,2.6,0,0,0,2.2-1.044v.864h1.387V42.8c0-2.016-1.117-3.168-2.842-3.168m-.439,6.732c-.711,0-1.219-.36-1.219-1.008,0-.612.406-.936,1.219-.936h1.759v.144a1.724,1.724,0,0,1-1.759,1.8" transform="translate(-57.658 -11.626)" fill="#010202"/>
        <path id="Path_43" data-name="Path 43" d="M185.14,45.468l-2-5.58h-1.591l2.775,7.307-.27.72a1.46,1.46,0,0,1-1.522,1.116,4.772,4.772,0,0,1-.812-.072v1.368a4.2,4.2,0,0,0,1.15.144c1.184,0,1.963-.648,2.538-2.088l3.384-8.5H187.2Z" transform="translate(-60.959 -11.701)" fill="#010202"/>
      </g>
    </g>
  </g>
</svg>
